<svg xmlns="http://www.w3.org/2000/svg" width="475.879" height="68.804" viewBox="0 0 475.879 68.804"><g id="svgGroup" fill="#ffff82" fill-rule="evenodd" stroke="#fcfc5a" stroke-linecap="round" stroke-width=".3mm" font-size="12" style="stroke:#fcfc5a;stroke-width:.3mm;fill:#ffff82"><path d="M 65.527 45.806 L 80.518 45.806 L 76.611 68.218 L 54.102 68.218 A 16.814 16.814 0 0 1 46.19 66.163 Q 43.155 64.565 40.186 61.724 A 8.003 8.003 0 0 1 39.931 61.452 Q 39.226 60.672 37.183 58.233 Q 35.257 55.933 32.03 52.017 A 2626.541 2626.541 0 0 1 29.932 49.468 L 26.611 68.218 L 0 68.218 L 6.543 30.816 L 48.193 30.816 A 4.483 4.483 0 0 0 50.661 30.061 A 6.359 6.359 0 0 0 51.563 29.351 A 5.833 5.833 0 0 0 52.513 28.219 A 4.121 4.121 0 0 0 53.174 25.982 A 3.414 3.414 0 0 0 52.15 23.518 A 3.608 3.608 0 0 0 52.148 23.516 A 3.492 3.492 0 0 0 50.997 22.716 A 3.308 3.308 0 0 0 49.707 22.466 L 8.008 22.466 L 11.914 0.005 L 60.254 0.005 Q 68.75 0.005 74.658 5.62 A 18.422 18.422 0 0 1 80.655 18.986 A 22.789 22.789 0 0 1 80.664 19.634 A 23.253 23.253 0 0 1 76.875 32.287 A 29.771 29.771 0 0 1 75.342 34.478 A 33.643 33.643 0 0 1 69.702 40.215 A 30.828 30.828 0 0 1 62.793 44.341 A 3.123 3.123 0 0 0 63.814 45.368 Q 64.539 45.806 65.527 45.806 Z M 392.773 0.005 L 388.867 22.466 L 347.168 22.466 L 346.777 24.566 L 371.777 24.566 L 368.457 43.755 L 343.457 43.755 L 343.018 45.806 L 384.668 45.806 L 380.762 68.218 L 312.5 68.218 L 324.414 0.005 L 392.773 0.005 Z M 59.863 2.495 L 14.014 2.495 L 10.938 19.976 L 50.098 19.976 A 5.518 5.518 0 0 1 52.295 20.415 Q 53.32 20.855 54.053 21.611 Q 54.785 22.368 55.225 23.394 A 5.518 5.518 0 0 1 55.664 25.591 A 6.871 6.871 0 0 1 54.174 29.848 A 9.743 9.743 0 0 1 53.174 30.962 Q 50.684 33.306 47.754 33.306 L 8.594 33.306 L 2.93 65.825 L 24.512 65.825 L 28.418 43.462 L 40.527 57.915 A 29.8 29.8 0 0 0 44.508 61.893 Q 49.342 65.825 54.541 65.825 L 74.512 65.825 L 77.588 48.296 L 65.088 48.296 A 5.02 5.02 0 0 1 61.181 46.43 Q 60.495 45.645 59.923 44.529 A 14.815 14.815 0 0 1 59.277 43.071 A 34.445 34.445 0 0 0 67.788 38.594 A 30.071 30.071 0 0 0 72.461 34.38 A 23.091 23.091 0 0 0 76.619 27.828 A 20.26 20.26 0 0 0 78.125 20.073 A 16.848 16.848 0 0 0 76.264 12.14 A 17.336 17.336 0 0 0 72.705 7.525 Q 67.383 2.495 59.863 2.495 Z M 389.844 2.495 L 326.514 2.495 L 315.43 65.825 L 378.711 65.825 L 381.787 48.296 L 340.088 48.296 L 341.357 41.216 L 366.357 41.216 L 368.848 27.056 L 343.848 27.056 L 345.117 19.976 L 386.768 19.976 L 389.844 2.495 Z M 251.172 0.005 L 239.063 68.218 L 212.402 68.218 L 215.82 49.321 L 198.584 68.804 L 188.33 49.321 L 184.912 68.218 L 158.301 68.218 L 170.313 0.005 L 196.582 0.005 L 207.178 20.22 L 224.902 0.005 L 251.172 0.005 Z M 248.242 2.495 L 225.83 2.495 L 206.396 24.566 L 194.824 2.495 L 172.412 2.495 L 161.328 65.825 L 182.91 65.825 L 187.158 41.314 L 199.316 64.556 L 219.678 41.314 L 215.381 65.825 L 237.061 65.825 L 248.242 2.495 Z M 321.924 0.005 L 318.018 22.466 L 290.674 22.466 A 0.919 0.919 0 0 0 289.858 22.916 Q 289.689 23.177 289.6 23.589 L 300 32.671 A 15.44 15.44 0 0 1 305.397 43.932 A 19.655 19.655 0 0 1 305.42 44.878 Q 305.42 54.302 297.266 61.48 A 29.024 29.024 0 0 1 289.225 66.426 A 25.064 25.064 0 0 1 279.834 68.218 L 241.65 68.218 L 245.605 45.806 L 271.094 45.806 A 0.909 0.909 0 0 0 271.902 45.348 Q 272.011 45.176 272.088 44.94 A 2.936 2.936 0 0 0 272.168 44.634 A 183.287 183.287 0 0 1 270.367 43.172 Q 267.346 40.691 262.402 36.48 A 13.737 13.737 0 0 1 257.901 26.872 A 18.709 18.709 0 0 1 257.861 25.64 A 23.904 23.904 0 0 1 263.816 9.837 A 32.28 32.28 0 0 1 265.674 7.818 A 27.951 27.951 0 0 1 272.949 2.477 A 23.535 23.535 0 0 1 283.594 0.005 L 321.924 0.005 Z M 318.994 2.495 L 283.154 2.495 A 21.228 21.228 0 0 0 270.419 6.774 A 29.012 29.012 0 0 0 267.48 9.234 A 24.903 24.903 0 0 0 263.029 14.781 A 19.224 19.224 0 0 0 260.4 24.566 A 14.725 14.725 0 0 0 264.16 34.478 A 15.839 15.839 0 0 0 265.43 35.794 Q 266.782 37.061 268.906 38.641 A 81.914 81.914 0 0 0 270.996 40.142 Q 274.658 42.73 274.658 44.341 A 3.286 3.286 0 0 1 274.168 46.043 Q 273.893 46.506 273.463 46.951 A 6.314 6.314 0 0 1 273.389 47.027 A 5.015 5.015 0 0 1 272.451 47.775 A 3.412 3.412 0 0 1 270.654 48.296 L 247.607 48.296 L 244.58 65.825 L 280.273 65.825 A 22.715 22.715 0 0 0 294.279 60.983 A 29.236 29.236 0 0 0 295.605 59.917 A 23.223 23.223 0 0 0 299.938 55.087 A 17.161 17.161 0 0 0 302.832 45.464 A 14.58 14.58 0 0 0 300.904 38.306 A 20.428 20.428 0 0 0 298.73 35.161 Q 297.607 33.892 295.728 32.207 A 67.339 67.339 0 0 0 294.204 30.885 Q 293.352 30.167 292.377 29.384 A 125.065 125.065 0 0 0 291.162 28.423 A 42.982 42.982 0 0 1 289.752 27.318 Q 287.778 25.698 287.226 24.73 A 1.369 1.369 0 0 1 287.012 24.077 A 3.58 3.58 0 0 1 287.682 22.007 A 5.144 5.144 0 0 1 288.281 21.294 A 5.389 5.389 0 0 1 289.2 20.547 Q 289.888 20.11 290.614 20.007 A 3.208 3.208 0 0 1 291.064 19.976 L 315.918 19.976 L 318.994 2.495 Z M 475.879 0.005 L 440.381 46.88 L 436.621 68.218 L 409.961 68.218 L 413.721 46.88 L 394.727 0.005 L 424.951 0.005 L 432.031 18.657 L 445.605 0.005 L 475.879 0.005 Z M 156.006 68.218 L 128.418 68.218 L 127.686 59.966 L 110.01 59.966 L 106.445 68.218 L 78.906 68.218 L 108.74 0.005 L 150.098 0.005 L 156.006 68.218 Z M 471.143 2.495 L 446.68 2.495 L 431.104 23.833 L 423.047 2.495 L 398.633 2.495 L 416.309 46.245 L 412.891 65.825 L 434.521 65.825 L 437.939 46.245 L 471.143 2.495 Z M 153.271 65.825 L 147.656 2.495 L 110.352 2.495 L 82.52 65.825 L 104.834 65.825 L 108.496 57.476 L 130.176 57.476 L 130.859 65.825 L 153.271 65.825 Z M 128.857 44.146 L 114.502 44.146 L 126.611 16.411 L 128.857 44.146 Z M 126.074 41.655 L 124.756 26.421 L 118.066 41.655 L 126.074 41.655 Z" vector-effect="non-scaling-stroke"/></g></svg>