<svg width="814.111" height="68.804" viewBox="0 0 814.111 68.804" xmlns="http://www.w3.org/2000/svg"><g id="svgGroup" stroke-linecap="round" fill-rule="evenodd" font-size="9pt" stroke="#fcfc5a" stroke-width="0.3mm" fill="#ffff82" style="stroke:#fcfc5a;stroke-width:0.3mm;fill:#ffff82"><path d="M 401.172 0.005 L 397.266 22.466 L 355.566 22.466 L 355.176 24.566 L 380.176 24.566 L 376.855 43.755 L 351.855 43.755 L 351.416 45.806 L 393.066 45.806 L 389.16 68.218 L 320.898 68.218 L 332.813 0.005 L 401.172 0.005 Z M 672.021 0.005 L 668.115 22.466 L 626.416 22.466 L 626.025 24.566 L 651.025 24.566 L 647.705 43.755 L 622.705 43.755 L 622.266 45.806 L 663.916 45.806 L 660.01 68.218 L 591.748 68.218 L 603.662 0.005 L 672.021 0.005 Z M 742.871 0.005 L 738.965 22.466 L 697.266 22.466 L 696.875 24.566 L 721.875 24.566 L 718.555 43.755 L 693.555 43.755 L 693.115 45.806 L 734.766 45.806 L 730.859 68.218 L 662.598 68.218 L 674.512 0.005 L 742.871 0.005 Z M 398.242 2.495 L 334.912 2.495 L 323.828 65.825 L 387.109 65.825 L 390.186 48.296 L 348.486 48.296 L 349.756 41.216 L 374.756 41.216 L 377.246 27.056 L 352.246 27.056 L 353.516 19.976 L 395.166 19.976 L 398.242 2.495 Z M 669.092 2.495 L 605.762 2.495 L 594.678 65.825 L 657.959 65.825 L 661.035 48.296 L 619.336 48.296 L 620.605 41.216 L 645.605 41.216 L 648.096 27.056 L 623.096 27.056 L 624.365 19.976 L 666.016 19.976 L 669.092 2.495 Z M 739.941 2.495 L 676.611 2.495 L 665.527 65.825 L 728.809 65.825 L 731.885 48.296 L 690.186 48.296 L 691.455 41.216 L 716.455 41.216 L 718.945 27.056 L 693.945 27.056 L 695.215 19.976 L 736.865 19.976 L 739.941 2.495 Z M 601.27 0.005 L 589.16 68.218 L 562.5 68.218 L 565.918 49.321 L 548.682 68.804 L 538.428 49.321 L 535.01 68.218 L 508.398 68.218 L 520.41 0.005 L 546.68 0.005 L 557.275 20.22 L 575 0.005 L 601.27 0.005 Z M 598.34 2.495 L 575.928 2.495 L 556.494 24.566 L 544.922 2.495 L 522.51 2.495 L 511.426 65.825 L 533.008 65.825 L 537.256 41.314 L 549.414 64.556 L 569.775 41.314 L 565.479 65.825 L 587.158 65.825 L 598.34 2.495 Z M 217.822 0.005 L 205.859 68.218 L 179.59 68.218 L 164.404 43.218 L 160.01 68.218 L 133.398 68.218 L 145.313 0.005 L 171.582 0.005 L 186.768 25.054 L 191.162 0.005 L 217.822 0.005 Z M 214.941 2.495 L 193.262 2.495 L 187.988 32.378 L 170.02 2.495 L 147.412 2.495 L 136.328 65.825 L 157.91 65.825 L 163.184 35.894 L 181.152 65.825 L 203.76 65.825 L 214.941 2.495 Z M 77.197 0.005 L 47.266 68.218 L 5.957 68.218 L 0 0.005 L 27.588 0.005 L 31.201 41.997 L 49.609 0.005 L 77.197 0.005 Z M 457.275 45.806 L 472.266 45.806 L 468.359 68.218 L 445.85 68.218 A 16.814 16.814 0 0 1 437.938 66.163 Q 434.903 64.565 431.934 61.724 A 8.928 8.928 0 0 1 431.661 61.434 Q 431.048 60.76 429.531 58.963 A 402.642 402.642 0 0 1 428.833 58.135 A 436.958 436.958 0 0 1 427.425 56.449 Q 425.122 53.679 421.68 49.468 L 418.359 68.218 L 391.748 68.218 L 403.662 0.005 L 452.002 0.005 Q 460.498 0.005 466.406 5.62 A 18.422 18.422 0 0 1 472.403 18.986 A 22.789 22.789 0 0 1 472.412 19.634 A 23.253 23.253 0 0 1 468.623 32.287 A 29.771 29.771 0 0 1 467.09 34.478 A 33.643 33.643 0 0 1 461.45 40.215 A 30.828 30.828 0 0 1 454.541 44.341 A 3.123 3.123 0 0 0 455.562 45.368 Q 456.287 45.806 457.275 45.806 Z M 798.975 45.806 L 813.965 45.806 L 810.059 68.218 L 787.549 68.218 A 16.814 16.814 0 0 1 779.637 66.163 Q 776.602 64.565 773.633 61.724 A 8.928 8.928 0 0 1 773.36 61.434 Q 772.747 60.76 771.23 58.963 A 402.642 402.642 0 0 1 770.532 58.135 A 436.958 436.958 0 0 1 769.124 56.449 Q 766.821 53.679 763.379 49.468 L 760.059 68.218 L 733.447 68.218 L 745.361 0.005 L 793.701 0.005 Q 802.197 0.005 808.105 5.62 A 18.422 18.422 0 0 1 814.102 18.986 A 22.789 22.789 0 0 1 814.111 19.634 A 23.253 23.253 0 0 1 810.322 32.287 A 29.771 29.771 0 0 1 808.789 34.478 A 33.643 33.643 0 0 1 803.149 40.215 A 30.828 30.828 0 0 1 796.24 44.341 A 3.123 3.123 0 0 0 797.261 45.368 Q 797.987 45.806 798.975 45.806 Z M 73.584 2.495 L 51.172 2.495 L 29.541 51.812 L 25.195 2.495 L 2.783 2.495 L 8.35 65.825 L 45.703 65.825 L 73.584 2.495 Z M 451.611 2.495 L 405.762 2.495 L 394.678 65.825 L 416.26 65.825 L 420.166 43.462 L 432.275 57.915 A 29.8 29.8 0 0 0 436.256 61.893 Q 441.09 65.825 446.289 65.825 L 466.26 65.825 L 469.336 48.296 L 456.836 48.296 A 5.077 5.077 0 0 1 452.496 45.944 Q 451.888 45.079 451.42 43.896 A 14.431 14.431 0 0 1 451.123 43.071 A 32.303 32.303 0 0 0 459.966 38.349 A 29.027 29.027 0 0 0 464.209 34.38 A 23.091 23.091 0 0 0 468.367 27.828 A 20.26 20.26 0 0 0 469.873 20.073 A 16.848 16.848 0 0 0 468.012 12.14 A 17.336 17.336 0 0 0 464.453 7.525 Q 459.131 2.495 451.611 2.495 Z M 793.311 2.495 L 747.461 2.495 L 736.377 65.825 L 757.959 65.825 L 761.865 43.462 L 773.975 57.915 A 29.8 29.8 0 0 0 777.955 61.893 Q 782.79 65.825 787.988 65.825 L 807.959 65.825 L 811.035 48.296 L 798.535 48.296 A 5.077 5.077 0 0 1 794.196 45.944 Q 793.587 45.079 793.119 43.896 A 14.431 14.431 0 0 1 792.822 43.071 A 32.303 32.303 0 0 0 801.665 38.349 A 29.027 29.027 0 0 0 805.908 34.38 A 23.091 23.091 0 0 0 810.066 27.828 A 20.26 20.26 0 0 0 811.572 20.073 A 16.848 16.848 0 0 0 809.711 12.14 A 17.336 17.336 0 0 0 806.152 7.525 Q 800.83 2.495 793.311 2.495 Z M 131.104 68.218 L 103.516 68.218 L 102.783 59.966 L 85.107 59.966 L 81.543 68.218 L 54.004 68.218 L 83.838 0.005 L 125.195 0.005 L 131.104 68.218 Z M 128.369 65.825 L 122.754 2.495 L 85.449 2.495 L 57.617 65.825 L 79.932 65.825 L 83.594 57.476 L 105.273 57.476 L 105.957 65.825 L 128.369 65.825 Z M 282.08 68.218 L 245.898 68.218 L 257.813 0.005 L 294.092 0.005 A 34.49 34.49 0 0 1 305.521 1.838 A 30.25 30.25 0 0 1 315.674 7.818 A 26.689 26.689 0 0 1 324.826 27.22 A 32.885 32.885 0 0 1 324.854 28.569 A 34.857 34.857 0 0 1 315.925 51.89 A 49.411 49.411 0 0 1 311.328 56.548 A 47.775 47.775 0 0 1 298.36 64.924 A 41.055 41.055 0 0 1 282.08 68.218 Z M 293.652 2.495 L 259.912 2.495 L 248.828 65.825 L 282.52 65.825 A 39.091 39.091 0 0 0 306.551 57.535 A 51.21 51.21 0 0 0 309.668 54.986 A 41.463 41.463 0 0 0 317.374 46.091 A 31.415 31.415 0 0 0 322.314 29.009 A 25.442 25.442 0 0 0 320.025 18.121 A 25.132 25.132 0 0 0 313.672 9.819 A 28.401 28.401 0 0 0 295.844 2.56 A 36.831 36.831 0 0 0 293.652 2.495 Z M 285.596 48.296 L 271.826 48.296 L 276.855 19.976 L 290.576 19.976 A 12.029 12.029 0 0 1 299.219 23.394 Q 302.832 26.861 302.832 31.89 Q 302.832 38.335 297.461 43.316 A 19.944 19.944 0 0 1 292.729 46.631 A 15.936 15.936 0 0 1 285.596 48.296 Z M 290.186 22.466 L 278.906 22.466 L 274.756 45.806 L 285.986 45.806 Q 291.357 45.806 295.85 41.704 A 16.145 16.145 0 0 0 298.498 38.56 A 11.454 11.454 0 0 0 300.342 32.329 A 9.309 9.309 0 0 0 297.512 25.491 A 11.438 11.438 0 0 0 297.314 25.298 Q 294.336 22.466 290.186 22.466 Z M 103.955 44.146 L 89.6 44.146 L 101.709 16.411 L 103.955 44.146 Z M 439.941 30.816 L 422.412 30.816 L 424.756 17.486 L 442.285 17.486 A 5.227 5.227 0 0 1 446.09 19.044 A 6.408 6.408 0 0 1 446.191 19.146 Q 447.852 20.757 447.852 23.052 A 6.998 6.998 0 0 1 446.239 27.513 A 9.784 9.784 0 0 1 445.361 28.472 Q 442.871 30.816 439.941 30.816 Z M 781.641 30.816 L 764.111 30.816 L 766.455 17.486 L 783.984 17.486 A 5.227 5.227 0 0 1 787.789 19.044 A 6.408 6.408 0 0 1 787.891 19.146 Q 789.551 20.757 789.551 23.052 A 6.998 6.998 0 0 1 787.938 27.513 A 9.784 9.784 0 0 1 787.061 28.472 Q 784.57 30.816 781.641 30.816 Z M 441.846 19.976 L 426.855 19.976 L 425.342 28.325 L 440.332 28.325 A 4.539 4.539 0 0 0 443.218 27.287 A 6.208 6.208 0 0 0 443.75 26.812 A 5.957 5.957 0 0 0 444.684 25.711 A 4.022 4.022 0 0 0 445.361 23.491 A 3.367 3.367 0 0 0 444.344 21.058 A 4.371 4.371 0 0 0 444.312 21.026 A 3.62 3.62 0 0 0 443.175 20.24 A 3.345 3.345 0 0 0 441.846 19.976 Z M 783.545 19.976 L 768.555 19.976 L 767.041 28.325 L 782.031 28.325 A 4.539 4.539 0 0 0 784.917 27.287 A 6.208 6.208 0 0 0 785.449 26.812 A 5.957 5.957 0 0 0 786.383 25.711 A 4.022 4.022 0 0 0 787.061 23.491 A 3.367 3.367 0 0 0 786.043 21.058 A 4.371 4.371 0 0 0 786.011 21.026 A 3.62 3.62 0 0 0 784.874 20.24 A 3.345 3.345 0 0 0 783.545 19.976 Z M 101.172 41.655 L 99.854 26.421 L 93.164 41.655 L 101.172 41.655 Z" vector-effect="non-scaling-stroke"/></g></svg>